<?xml version="1.0" encoding="UTF-8"?>
<svg xmlns="http://www.w3.org/2000/svg" width="2048" height="682" viewBox="0 0 2048 682" fill="none">
  <path d="M 1099 124 L 1098 125 L 1095 125 L 1094 126 L 1092 126 L 1091 127 L 1087 127 L 1086 128 L 1085 128 L 1077 136 L 1077 137 L 1076 138 L 1076 139 L 1075 140 L 1075 141 L 1074 142 L 1074 144 L 1073 145 L 1073 146 L 1072 147 L 1072 149 L 1071 150 L 1071 152 L 1070 153 L 1070 155 L 1069 156 L 1069 160 L 1067 162 L 1067 165 L 1066 166 L 1066 168 L 1065 169 L 1065 172 L 1064 173 L 1064 175 L 1063 176 L 1063 179 L 1062 180 L 1062 183 L 1061 184 L 1061 186 L 1060 187 L 1060 190 L 1059 191 L 1059 195 L 1058 196 L 1058 198 L 1057 199 L 1057 203 L 1056 204 L 1056 205 L 1055 206 L 1053 206 L 1041 194 L 1040 194 L 1039 193 L 1038 193 L 1035 190 L 1034 190 L 1032 188 L 1031 188 L 1029 186 L 1028 186 L 1025 183 L 1024 183 L 1022 181 L 1021 181 L 1020 180 L 1019 180 L 1018 179 L 1017 179 L 1016 178 L 1015 178 L 1014 177 L 1013 177 L 1012 176 L 1011 176 L 1010 175 L 1009 175 L 1008 174 L 1005 174 L 1004 173 L 1003 173 L 1002 172 L 1001 172 L 1000 171 L 999 171 L 998 170 L 995 170 L 994 169 L 990 169 L 989 168 L 987 168 L 986 167 L 982 167 L 981 166 L 977 166 L 976 165 L 971 165 L 970 164 L 958 164 L 957 163 L 956 163 L 955 164 L 939 164 L 938 165 L 934 165 L 933 166 L 929 166 L 928 167 L 926 167 L 925 168 L 922 168 L 921 169 L 918 169 L 917 170 L 915 170 L 914 171 L 912 171 L 911 172 L 909 172 L 908 173 L 906 173 L 905 174 L 904 174 L 903 175 L 902 175 L 901 176 L 899 176 L 898 177 L 897 177 L 896 178 L 894 178 L 893 179 L 892 179 L 891 180 L 890 180 L 889 181 L 888 181 L 887 182 L 886 182 L 884 184 L 883 184 L 882 185 L 881 185 L 879 187 L 878 187 L 876 189 L 875 189 L 874 190 L 873 190 L 868 195 L 867 195 L 863 199 L 862 199 L 853 208 L 852 208 L 851 209 L 851 210 L 842 219 L 842 220 L 838 224 L 838 225 L 836 227 L 836 228 L 834 230 L 834 231 L 830 235 L 830 236 L 827 239 L 827 240 L 825 242 L 825 243 L 823 245 L 823 246 L 822 247 L 822 248 L 821 249 L 821 250 L 820 251 L 820 252 L 819 253 L 819 254 L 818 255 L 818 256 L 817 257 L 817 258 L 816 259 L 816 260 L 815 261 L 815 262 L 814 263 L 814 264 L 813 265 L 813 267 L 812 268 L 812 269 L 811 270 L 811 271 L 810 272 L 810 273 L 809 274 L 809 275 L 808 276 L 808 278 L 807 279 L 807 280 L 806 281 L 806 283 L 805 284 L 805 287 L 803 289 L 803 291 L 802 292 L 802 295 L 801 296 L 801 298 L 800 299 L 800 304 L 799 305 L 799 309 L 798 310 L 798 315 L 797 316 L 797 319 L 796 320 L 796 323 L 795 324 L 795 329 L 794 330 L 794 340 L 793 341 L 794 342 L 794 343 L 793 344 L 793 354 L 794 355 L 794 370 L 795 371 L 795 380 L 796 381 L 796 388 L 797 389 L 797 392 L 798 393 L 798 396 L 799 397 L 799 400 L 800 401 L 800 402 L 801 403 L 801 406 L 802 407 L 802 410 L 803 411 L 803 412 L 804 413 L 804 416 L 805 417 L 805 419 L 806 420 L 806 422 L 807 423 L 807 424 L 808 425 L 808 426 L 809 427 L 809 428 L 810 429 L 810 430 L 811 431 L 811 432 L 812 433 L 812 434 L 814 436 L 814 437 L 815 438 L 815 439 L 817 441 L 817 442 L 820 445 L 820 446 L 825 451 L 825 452 L 835 462 L 835 463 L 836 464 L 837 464 L 840 467 L 841 467 L 844 470 L 845 470 L 847 472 L 848 472 L 850 474 L 851 474 L 854 477 L 855 477 L 856 478 L 858 478 L 860 480 L 862 480 L 865 483 L 866 483 L 867 484 L 869 484 L 870 485 L 872 485 L 873 486 L 874 486 L 875 487 L 877 487 L 878 488 L 880 488 L 881 489 L 884 489 L 885 490 L 889 490 L 890 491 L 895 491 L 896 492 L 901 492 L 902 493 L 908 493 L 909 494 L 932 494 L 933 493 L 938 493 L 939 492 L 942 492 L 943 491 L 947 491 L 948 490 L 951 490 L 952 489 L 954 489 L 955 488 L 957 488 L 959 486 L 961 486 L 962 485 L 963 485 L 964 484 L 965 484 L 966 483 L 968 483 L 969 482 L 970 482 L 971 481 L 972 481 L 973 480 L 974 480 L 976 478 L 978 478 L 979 477 L 980 477 L 982 475 L 983 475 L 986 472 L 987 472 L 992 467 L 993 467 L 1001 459 L 1002 459 L 1012 449 L 1012 448 L 1013 447 L 1014 447 L 1022 439 L 1022 438 L 1023 437 L 1023 436 L 1026 433 L 1026 432 L 1028 430 L 1028 429 L 1031 426 L 1031 425 L 1034 422 L 1034 421 L 1035 420 L 1035 419 L 1037 417 L 1037 416 L 1040 413 L 1040 412 L 1042 410 L 1042 409 L 1043 408 L 1043 407 L 1044 406 L 1044 405 L 1046 403 L 1046 402 L 1047 401 L 1047 400 L 1048 399 L 1048 398 L 1049 397 L 1049 396 L 1050 395 L 1050 394 L 1052 392 L 1052 391 L 1053 390 L 1053 389 L 1054 388 L 1054 387 L 1055 386 L 1055 384 L 1057 382 L 1057 381 L 1059 379 L 1059 377 L 1060 376 L 1060 374 L 1061 373 L 1061 372 L 1062 371 L 1062 369 L 1064 367 L 1064 365 L 1065 364 L 1065 363 L 1066 362 L 1066 361 L 1067 360 L 1067 359 L 1068 358 L 1068 356 L 1069 355 L 1069 354 L 1070 353 L 1070 351 L 1071 350 L 1071 349 L 1072 348 L 1072 346 L 1074 344 L 1076 346 L 1076 355 L 1077 356 L 1077 399 L 1078 400 L 1078 415 L 1077 416 L 1077 430 L 1078 431 L 1078 434 L 1077 435 L 1077 439 L 1078 440 L 1078 463 L 1079 464 L 1079 474 L 1080 475 L 1080 479 L 1081 480 L 1081 482 L 1082 483 L 1082 484 L 1083 485 L 1083 486 L 1085 488 L 1085 489 L 1086 490 L 1087 490 L 1089 492 L 1089 493 L 1091 495 L 1092 495 L 1094 497 L 1095 497 L 1096 498 L 1098 498 L 1099 499 L 1101 499 L 1102 500 L 1105 500 L 1106 501 L 1120 501 L 1121 500 L 1123 500 L 1124 499 L 1126 499 L 1127 498 L 1128 498 L 1129 497 L 1131 497 L 1134 494 L 1135 494 L 1141 488 L 1141 487 L 1143 485 L 1143 484 L 1144 483 L 1144 482 L 1145 481 L 1145 475 L 1146 474 L 1146 458 L 1147 457 L 1146 456 L 1146 447 L 1147 446 L 1147 445 L 1146 444 L 1146 440 L 1147 439 L 1146 438 L 1146 418 L 1147 417 L 1146 416 L 1146 398 L 1145 397 L 1145 384 L 1146 383 L 1146 376 L 1145 375 L 1145 352 L 1144 351 L 1144 300 L 1143 299 L 1143 295 L 1144 294 L 1143 293 L 1143 292 L 1144 291 L 1144 289 L 1143 288 L 1143 274 L 1142 273 L 1142 256 L 1143 255 L 1143 253 L 1142 252 L 1143 251 L 1143 250 L 1142 249 L 1142 248 L 1143 247 L 1143 246 L 1142 245 L 1142 225 L 1141 224 L 1141 201 L 1140 200 L 1140 191 L 1141 190 L 1140 189 L 1140 186 L 1141 185 L 1140 184 L 1140 182 L 1141 181 L 1141 180 L 1140 179 L 1140 160 L 1139 159 L 1139 153 L 1138 152 L 1138 149 L 1137 148 L 1137 146 L 1135 144 L 1135 143 L 1134 142 L 1134 141 L 1132 139 L 1132 138 L 1130 136 L 1129 136 L 1124 131 L 1123 131 L 1122 130 L 1121 130 L 1119 128 L 1117 128 L 1116 127 L 1114 127 L 1113 126 L 1110 126 L 1109 125 L 1107 125 L 1106 124 Z M 941 231 L 942 230 L 969 230 L 970 231 L 976 231 L 977 232 L 979 232 L 980 233 L 982 233 L 983 234 L 985 234 L 986 235 L 987 235 L 988 236 L 989 236 L 990 237 L 991 237 L 993 239 L 994 239 L 995 240 L 996 240 L 999 243 L 1000 243 L 1007 250 L 1007 251 L 1013 257 L 1013 258 L 1014 259 L 1014 260 L 1015 261 L 1015 262 L 1016 263 L 1016 265 L 1017 266 L 1017 267 L 1018 268 L 1018 271 L 1019 272 L 1019 274 L 1020 275 L 1020 280 L 1021 281 L 1021 288 L 1022 289 L 1022 304 L 1021 305 L 1021 310 L 1020 311 L 1020 316 L 1019 317 L 1019 322 L 1018 323 L 1018 325 L 1017 326 L 1017 329 L 1016 330 L 1016 332 L 1015 333 L 1015 335 L 1014 336 L 1014 337 L 1013 338 L 1013 340 L 1012 341 L 1012 342 L 1011 343 L 1011 344 L 1010 345 L 1010 346 L 1009 347 L 1009 348 L 1008 349 L 1008 350 L 1006 352 L 1006 353 L 1005 354 L 1005 355 L 1003 357 L 1003 358 L 1002 359 L 1002 360 L 1001 361 L 1001 362 L 1000 363 L 1000 364 L 998 366 L 998 367 L 996 369 L 996 370 L 992 374 L 992 375 L 991 376 L 991 377 L 990 378 L 990 379 L 987 382 L 987 383 L 985 385 L 984 385 L 984 386 L 983 387 L 983 388 L 974 397 L 974 398 L 962 410 L 961 410 L 955 416 L 954 416 L 952 418 L 951 418 L 950 419 L 949 419 L 947 421 L 946 421 L 945 422 L 944 422 L 943 423 L 942 423 L 941 424 L 940 424 L 938 426 L 936 426 L 935 427 L 932 427 L 931 428 L 928 428 L 927 429 L 915 429 L 914 428 L 907 428 L 906 427 L 904 427 L 903 426 L 900 426 L 899 425 L 897 425 L 896 424 L 895 424 L 893 422 L 892 422 L 891 421 L 890 421 L 888 419 L 887 419 L 885 417 L 884 417 L 883 416 L 882 416 L 875 409 L 875 408 L 870 403 L 870 402 L 869 401 L 869 400 L 867 398 L 867 397 L 866 396 L 866 395 L 865 394 L 865 393 L 864 392 L 864 390 L 863 389 L 863 388 L 862 387 L 862 385 L 861 384 L 861 383 L 860 382 L 860 380 L 859 379 L 859 377 L 858 376 L 858 372 L 857 371 L 857 365 L 856 364 L 856 345 L 857 344 L 857 331 L 858 330 L 858 324 L 859 323 L 859 319 L 860 318 L 860 313 L 861 312 L 861 311 L 862 310 L 862 308 L 863 307 L 863 305 L 864 304 L 864 302 L 865 301 L 865 300 L 866 299 L 866 297 L 867 296 L 867 295 L 868 294 L 868 293 L 869 292 L 869 291 L 870 290 L 870 289 L 871 288 L 871 287 L 872 286 L 872 285 L 873 284 L 873 283 L 875 281 L 875 280 L 876 279 L 876 278 L 877 277 L 877 276 L 878 275 L 878 274 L 880 272 L 880 271 L 884 267 L 884 266 L 892 258 L 892 257 L 893 256 L 894 256 L 894 255 L 896 253 L 897 253 L 903 247 L 904 247 L 906 245 L 907 245 L 909 243 L 910 243 L 912 241 L 913 241 L 914 240 L 915 240 L 916 239 L 917 239 L 919 237 L 920 237 L 921 236 L 923 236 L 925 234 L 929 234 L 930 233 L 932 233 L 933 232 L 936 232 L 937 231 Z" fill="#FFFFFF" fill-rule="evenodd"/>
  <path d="M 471 109 L 470 110 L 469 110 L 465 114 L 464 114 L 463 115 L 463 116 L 460 119 L 460 121 L 459 122 L 459 124 L 458 125 L 458 127 L 457 128 L 457 129 L 456 130 L 456 132 L 455 133 L 455 136 L 454 137 L 454 141 L 453 142 L 453 145 L 452 146 L 452 151 L 451 152 L 451 157 L 450 158 L 450 159 L 451 160 L 451 163 L 450 164 L 450 172 L 449 173 L 449 195 L 448 196 L 448 202 L 449 203 L 449 204 L 448 205 L 448 206 L 449 207 L 449 223 L 450 224 L 450 228 L 449 229 L 449 230 L 445 234 L 445 235 L 442 238 L 442 239 L 440 241 L 440 242 L 439 243 L 439 244 L 437 246 L 437 247 L 435 249 L 435 250 L 433 252 L 433 253 L 432 254 L 432 255 L 431 256 L 431 257 L 430 258 L 430 259 L 429 260 L 429 261 L 428 262 L 428 263 L 427 264 L 427 265 L 426 266 L 426 267 L 425 268 L 425 270 L 424 271 L 424 272 L 423 273 L 423 275 L 422 276 L 422 278 L 421 279 L 421 281 L 420 282 L 420 284 L 418 286 L 417 285 L 416 285 L 413 282 L 412 282 L 407 277 L 406 277 L 403 274 L 402 274 L 399 271 L 398 271 L 396 269 L 395 269 L 392 266 L 391 266 L 390 265 L 389 265 L 385 261 L 384 261 L 383 260 L 382 260 L 377 255 L 376 255 L 374 253 L 373 253 L 370 250 L 369 250 L 368 249 L 367 249 L 364 246 L 363 246 L 361 244 L 360 244 L 359 243 L 358 243 L 357 242 L 356 243 L 353 243 L 350 246 L 349 246 L 348 247 L 348 248 L 347 249 L 347 250 L 346 251 L 346 253 L 347 254 L 347 256 L 349 258 L 349 259 L 351 261 L 352 261 L 353 262 L 353 263 L 354 264 L 355 264 L 358 267 L 359 267 L 360 268 L 361 268 L 364 271 L 365 271 L 367 273 L 368 273 L 372 277 L 373 277 L 376 280 L 377 280 L 380 283 L 381 283 L 384 286 L 385 286 L 386 287 L 387 287 L 388 288 L 389 288 L 391 290 L 392 290 L 395 293 L 396 293 L 400 297 L 401 297 L 403 299 L 404 299 L 407 302 L 408 302 L 411 305 L 411 306 L 409 308 L 405 308 L 404 307 L 396 307 L 395 306 L 384 306 L 383 305 L 380 305 L 379 304 L 372 304 L 371 303 L 364 303 L 363 302 L 353 302 L 352 301 L 344 301 L 343 300 L 331 300 L 330 299 L 323 299 L 322 300 L 321 300 L 320 301 L 319 301 L 317 303 L 317 304 L 316 305 L 316 306 L 315 307 L 315 310 L 316 311 L 316 313 L 317 314 L 317 315 L 318 315 L 320 317 L 321 317 L 322 318 L 325 318 L 326 319 L 329 319 L 330 320 L 337 320 L 338 321 L 345 321 L 346 322 L 355 322 L 356 323 L 369 323 L 370 324 L 378 324 L 379 325 L 383 325 L 384 326 L 392 326 L 393 327 L 401 327 L 402 328 L 408 328 L 409 329 L 409 339 L 407 341 L 406 341 L 405 342 L 402 342 L 401 343 L 399 343 L 398 344 L 396 344 L 395 345 L 393 345 L 392 346 L 391 346 L 390 347 L 388 347 L 387 348 L 386 348 L 385 349 L 383 349 L 382 350 L 381 350 L 380 351 L 379 351 L 378 352 L 377 352 L 376 353 L 373 353 L 372 354 L 371 354 L 370 355 L 368 355 L 367 356 L 365 356 L 364 357 L 363 357 L 362 358 L 360 358 L 359 359 L 358 359 L 357 360 L 356 360 L 355 361 L 352 361 L 350 363 L 348 363 L 347 364 L 346 364 L 345 365 L 344 365 L 343 366 L 342 366 L 341 367 L 340 367 L 338 369 L 337 369 L 335 371 L 335 372 L 333 374 L 333 380 L 335 382 L 335 383 L 337 385 L 338 385 L 339 386 L 341 386 L 342 387 L 343 387 L 344 386 L 349 386 L 350 385 L 351 385 L 352 384 L 354 384 L 355 383 L 357 383 L 358 382 L 360 382 L 361 381 L 363 381 L 364 380 L 365 380 L 366 379 L 368 379 L 369 378 L 370 378 L 371 377 L 372 377 L 373 376 L 374 376 L 375 375 L 376 375 L 377 374 L 379 374 L 380 373 L 381 373 L 382 372 L 383 372 L 384 371 L 386 371 L 387 370 L 388 370 L 389 369 L 390 369 L 391 368 L 392 368 L 393 367 L 395 367 L 396 366 L 398 366 L 399 365 L 401 365 L 402 364 L 403 364 L 404 363 L 405 363 L 406 362 L 409 362 L 410 363 L 410 371 L 411 372 L 411 379 L 412 380 L 412 386 L 413 387 L 413 389 L 414 390 L 414 394 L 415 395 L 415 397 L 416 398 L 416 399 L 417 400 L 417 402 L 418 403 L 418 406 L 419 407 L 419 409 L 420 410 L 420 412 L 421 413 L 421 414 L 422 415 L 422 418 L 423 419 L 423 420 L 424 421 L 424 423 L 426 425 L 426 427 L 427 428 L 427 429 L 428 430 L 428 431 L 430 433 L 430 434 L 431 435 L 431 436 L 432 437 L 432 438 L 436 442 L 436 443 L 438 445 L 438 446 L 446 454 L 446 455 L 451 460 L 452 460 L 458 466 L 459 466 L 462 469 L 463 469 L 464 470 L 465 470 L 467 472 L 468 472 L 470 474 L 471 474 L 472 475 L 473 475 L 475 477 L 477 477 L 478 478 L 479 478 L 481 480 L 483 480 L 484 481 L 485 481 L 486 482 L 487 482 L 488 483 L 490 483 L 491 484 L 493 484 L 494 485 L 495 485 L 496 486 L 499 486 L 500 487 L 502 487 L 503 488 L 506 488 L 507 489 L 512 489 L 513 490 L 516 490 L 517 491 L 524 491 L 525 492 L 549 492 L 550 491 L 554 491 L 555 490 L 558 490 L 559 489 L 563 489 L 564 488 L 567 488 L 568 487 L 570 487 L 571 486 L 573 486 L 574 485 L 575 485 L 576 484 L 577 484 L 578 483 L 580 483 L 582 481 L 584 481 L 585 480 L 586 480 L 588 478 L 589 478 L 590 477 L 591 477 L 592 476 L 593 476 L 596 473 L 597 473 L 598 472 L 599 472 L 601 470 L 602 470 L 607 465 L 608 465 L 628 445 L 628 444 L 629 443 L 630 443 L 632 441 L 632 440 L 635 437 L 635 436 L 638 433 L 638 432 L 641 429 L 641 428 L 644 425 L 644 424 L 646 422 L 646 421 L 647 420 L 647 419 L 652 414 L 652 413 L 654 411 L 654 410 L 655 409 L 655 408 L 657 406 L 657 405 L 658 404 L 658 403 L 660 401 L 660 400 L 661 399 L 661 398 L 662 397 L 662 396 L 664 394 L 664 393 L 665 392 L 665 391 L 667 389 L 667 388 L 668 387 L 668 384 L 670 382 L 670 381 L 671 380 L 671 379 L 672 378 L 672 377 L 673 376 L 673 375 L 674 374 L 674 372 L 676 370 L 676 369 L 677 368 L 677 367 L 678 366 L 678 365 L 679 364 L 679 363 L 681 361 L 681 360 L 682 359 L 682 357 L 683 356 L 683 355 L 685 353 L 686 353 L 687 354 L 687 364 L 686 365 L 686 379 L 685 380 L 685 384 L 686 385 L 686 386 L 685 387 L 685 393 L 684 394 L 684 400 L 683 401 L 683 406 L 682 407 L 682 415 L 680 417 L 680 424 L 679 425 L 679 429 L 678 430 L 678 435 L 677 436 L 677 440 L 676 441 L 676 443 L 675 444 L 675 451 L 674 452 L 674 455 L 673 456 L 673 459 L 672 460 L 672 463 L 671 464 L 671 466 L 670 467 L 670 469 L 669 470 L 669 472 L 668 473 L 668 475 L 667 476 L 667 478 L 666 479 L 666 483 L 665 484 L 665 485 L 664 486 L 664 488 L 663 489 L 663 491 L 662 492 L 662 493 L 661 494 L 661 495 L 660 496 L 660 497 L 659 498 L 659 499 L 658 500 L 658 501 L 657 502 L 657 504 L 656 505 L 656 506 L 654 508 L 654 509 L 652 511 L 652 512 L 651 513 L 651 515 L 649 517 L 649 518 L 648 519 L 648 520 L 646 522 L 646 523 L 644 525 L 644 526 L 641 529 L 641 530 L 639 532 L 639 533 L 638 534 L 638 535 L 622 551 L 621 551 L 620 552 L 620 553 L 619 554 L 618 554 L 614 558 L 613 558 L 612 559 L 611 559 L 609 561 L 608 561 L 606 563 L 605 563 L 603 565 L 602 565 L 601 566 L 600 566 L 599 567 L 597 567 L 596 568 L 595 568 L 594 569 L 592 569 L 591 570 L 588 570 L 587 571 L 585 571 L 584 572 L 580 572 L 579 573 L 567 573 L 566 574 L 547 574 L 546 573 L 533 573 L 532 572 L 525 572 L 524 571 L 522 571 L 521 570 L 519 570 L 518 569 L 517 569 L 516 568 L 515 568 L 514 567 L 513 567 L 512 566 L 511 566 L 510 565 L 510 564 L 509 564 L 507 562 L 506 562 L 505 561 L 504 561 L 502 559 L 501 559 L 500 558 L 499 558 L 498 557 L 498 556 L 497 556 L 493 552 L 492 552 L 483 543 L 482 543 L 475 536 L 474 536 L 471 533 L 470 533 L 467 530 L 466 530 L 464 528 L 463 528 L 461 526 L 460 526 L 458 524 L 456 524 L 455 523 L 454 523 L 453 522 L 452 522 L 451 521 L 450 521 L 449 520 L 448 520 L 447 519 L 444 519 L 443 518 L 442 518 L 441 517 L 438 517 L 437 516 L 433 516 L 432 515 L 426 515 L 425 516 L 419 516 L 418 517 L 413 517 L 412 518 L 411 518 L 410 519 L 408 519 L 407 520 L 406 520 L 405 521 L 404 521 L 401 524 L 400 524 L 394 530 L 394 531 L 392 533 L 392 534 L 390 536 L 390 538 L 389 539 L 389 543 L 388 544 L 388 553 L 389 554 L 389 557 L 390 558 L 390 560 L 391 561 L 391 562 L 392 563 L 392 564 L 394 566 L 394 567 L 402 575 L 403 575 L 404 576 L 405 576 L 406 577 L 408 577 L 409 578 L 411 578 L 412 579 L 431 579 L 432 580 L 433 580 L 437 584 L 437 585 L 439 587 L 439 588 L 441 590 L 441 591 L 443 593 L 443 594 L 446 597 L 446 598 L 448 600 L 448 601 L 474 627 L 475 627 L 480 632 L 480 633 L 481 633 L 482 634 L 483 634 L 486 637 L 487 637 L 489 639 L 490 639 L 491 640 L 492 640 L 494 642 L 495 642 L 496 643 L 497 643 L 499 645 L 500 645 L 501 646 L 502 646 L 503 647 L 504 647 L 505 648 L 507 648 L 508 649 L 509 649 L 511 651 L 512 651 L 513 652 L 514 652 L 515 653 L 517 653 L 518 654 L 519 654 L 520 655 L 522 655 L 523 656 L 526 656 L 527 657 L 529 657 L 530 658 L 533 658 L 534 659 L 539 659 L 540 660 L 545 660 L 546 661 L 554 661 L 555 662 L 585 662 L 586 661 L 592 661 L 593 660 L 598 660 L 599 659 L 604 659 L 605 658 L 607 658 L 608 657 L 611 657 L 612 656 L 614 656 L 615 655 L 617 655 L 618 654 L 621 654 L 622 653 L 624 653 L 625 652 L 627 652 L 628 651 L 630 651 L 631 650 L 632 650 L 633 649 L 634 649 L 635 648 L 637 648 L 638 647 L 639 647 L 640 646 L 641 646 L 642 645 L 644 645 L 646 643 L 647 643 L 648 642 L 649 642 L 650 641 L 651 641 L 653 639 L 654 639 L 657 636 L 658 636 L 660 634 L 661 634 L 665 630 L 666 630 L 668 628 L 669 628 L 670 627 L 671 627 L 681 617 L 682 617 L 682 616 L 684 614 L 685 614 L 687 612 L 687 611 L 693 605 L 693 604 L 697 600 L 697 599 L 703 593 L 703 592 L 706 589 L 706 588 L 707 587 L 707 586 L 709 584 L 709 583 L 710 582 L 710 581 L 711 580 L 711 579 L 713 577 L 713 576 L 714 575 L 714 573 L 715 572 L 715 571 L 716 570 L 716 569 L 717 568 L 717 567 L 718 566 L 718 565 L 719 564 L 719 563 L 721 561 L 721 559 L 722 558 L 722 557 L 723 556 L 723 555 L 724 554 L 724 552 L 725 551 L 725 550 L 726 549 L 726 547 L 727 546 L 727 545 L 728 544 L 728 542 L 729 541 L 729 540 L 730 539 L 730 538 L 731 537 L 731 535 L 732 534 L 732 533 L 733 532 L 733 528 L 734 527 L 734 525 L 735 524 L 735 522 L 736 521 L 736 518 L 737 517 L 737 515 L 738 514 L 738 513 L 739 512 L 739 510 L 740 509 L 740 507 L 741 506 L 741 504 L 742 503 L 742 500 L 743 499 L 743 496 L 744 495 L 744 492 L 745 491 L 745 489 L 746 488 L 746 484 L 747 483 L 747 477 L 748 476 L 748 472 L 749 471 L 749 467 L 750 466 L 750 461 L 751 460 L 751 456 L 752 455 L 752 450 L 753 449 L 753 445 L 754 444 L 754 439 L 755 438 L 755 431 L 756 430 L 756 425 L 757 424 L 757 412 L 758 411 L 758 405 L 759 404 L 759 395 L 760 394 L 760 384 L 761 383 L 761 374 L 762 373 L 762 357 L 763 356 L 763 353 L 762 352 L 762 336 L 763 335 L 763 319 L 764 318 L 763 317 L 763 310 L 764 309 L 764 305 L 763 304 L 763 303 L 764 302 L 763 301 L 763 274 L 762 273 L 762 272 L 763 271 L 762 270 L 762 239 L 761 238 L 761 225 L 760 224 L 760 216 L 759 215 L 759 206 L 758 205 L 758 188 L 757 187 L 757 183 L 756 182 L 756 178 L 755 177 L 755 172 L 754 171 L 754 169 L 753 168 L 753 165 L 752 164 L 752 162 L 751 161 L 751 160 L 750 159 L 750 156 L 749 155 L 749 153 L 748 152 L 748 150 L 747 149 L 747 147 L 746 146 L 746 145 L 745 144 L 745 143 L 744 142 L 744 141 L 743 140 L 743 139 L 742 138 L 742 137 L 741 136 L 741 135 L 740 134 L 740 133 L 737 130 L 737 129 L 736 128 L 736 127 L 732 123 L 731 123 L 727 119 L 726 119 L 725 118 L 723 118 L 722 117 L 721 117 L 720 116 L 712 116 L 711 117 L 710 117 L 709 118 L 708 118 L 707 119 L 706 119 L 703 122 L 702 122 L 698 126 L 698 127 L 697 128 L 697 129 L 695 131 L 695 132 L 694 133 L 694 134 L 692 136 L 692 137 L 691 138 L 691 139 L 690 140 L 690 142 L 689 143 L 689 144 L 688 145 L 688 146 L 687 147 L 687 148 L 686 149 L 686 151 L 685 152 L 685 154 L 684 155 L 684 156 L 683 157 L 683 159 L 681 161 L 681 163 L 680 164 L 680 166 L 679 167 L 679 170 L 678 171 L 678 174 L 677 175 L 677 178 L 676 179 L 676 180 L 675 181 L 675 185 L 674 186 L 674 187 L 673 188 L 673 190 L 672 191 L 672 196 L 671 197 L 671 198 L 670 199 L 670 202 L 669 203 L 669 204 L 668 205 L 666 205 L 664 203 L 664 202 L 658 196 L 657 196 L 654 193 L 653 193 L 652 192 L 651 192 L 647 188 L 646 188 L 643 185 L 642 185 L 640 183 L 639 183 L 636 180 L 635 180 L 634 179 L 633 179 L 632 178 L 630 178 L 629 177 L 628 177 L 626 175 L 624 175 L 623 174 L 622 174 L 621 173 L 620 173 L 619 172 L 617 172 L 616 171 L 614 171 L 613 170 L 611 170 L 610 169 L 608 169 L 607 168 L 604 168 L 603 167 L 599 167 L 598 166 L 596 166 L 595 165 L 589 165 L 588 164 L 580 164 L 579 163 L 555 163 L 554 164 L 548 164 L 547 165 L 543 165 L 542 166 L 540 166 L 539 167 L 536 167 L 535 168 L 532 168 L 531 169 L 529 169 L 528 170 L 526 170 L 525 171 L 524 171 L 522 169 L 522 168 L 521 167 L 521 165 L 520 164 L 520 163 L 519 162 L 519 161 L 518 160 L 518 159 L 517 158 L 517 157 L 516 156 L 516 155 L 515 154 L 515 153 L 514 152 L 514 151 L 512 149 L 512 148 L 510 146 L 510 145 L 508 143 L 508 142 L 507 141 L 507 140 L 506 139 L 506 138 L 504 136 L 504 135 L 502 133 L 502 132 L 500 130 L 500 129 L 499 128 L 499 127 L 497 125 L 497 124 L 485 112 L 484 112 L 482 110 L 481 110 L 480 109 Z M 560 229 L 561 228 L 562 228 L 563 229 L 564 228 L 565 229 L 567 229 L 568 228 L 571 228 L 572 229 L 586 229 L 587 230 L 593 230 L 594 231 L 597 231 L 598 232 L 599 232 L 600 233 L 603 233 L 604 234 L 605 234 L 607 236 L 608 236 L 610 238 L 611 238 L 613 240 L 614 240 L 615 241 L 616 241 L 625 250 L 625 251 L 627 253 L 627 254 L 629 256 L 629 257 L 631 259 L 631 261 L 632 262 L 632 263 L 633 264 L 633 266 L 634 267 L 634 269 L 635 270 L 635 275 L 636 276 L 636 304 L 635 305 L 635 310 L 634 311 L 634 314 L 633 315 L 633 317 L 632 318 L 632 322 L 631 323 L 631 325 L 630 326 L 630 327 L 629 328 L 629 329 L 628 330 L 628 332 L 627 333 L 627 334 L 626 335 L 626 337 L 625 338 L 625 339 L 624 340 L 624 342 L 622 344 L 622 346 L 621 347 L 621 348 L 620 349 L 620 350 L 619 351 L 619 352 L 617 354 L 617 355 L 616 356 L 616 357 L 614 359 L 614 360 L 612 362 L 612 363 L 610 365 L 610 366 L 609 367 L 609 368 L 607 370 L 607 372 L 605 374 L 605 375 L 603 377 L 603 378 L 600 381 L 600 382 L 595 387 L 595 388 L 591 392 L 591 393 L 569 415 L 568 415 L 567 416 L 566 416 L 565 417 L 564 417 L 562 419 L 561 419 L 560 420 L 559 420 L 558 421 L 557 421 L 556 422 L 555 422 L 554 423 L 552 423 L 551 424 L 549 424 L 548 425 L 546 425 L 545 426 L 542 426 L 541 427 L 531 427 L 530 426 L 525 426 L 524 425 L 520 425 L 519 424 L 517 424 L 516 423 L 514 423 L 513 422 L 512 422 L 511 421 L 510 421 L 509 420 L 507 420 L 505 418 L 504 418 L 503 417 L 502 417 L 501 416 L 500 416 L 496 412 L 495 412 L 488 405 L 488 404 L 485 401 L 485 400 L 484 399 L 484 398 L 483 397 L 483 396 L 482 395 L 482 394 L 481 393 L 481 392 L 480 391 L 480 390 L 479 389 L 479 387 L 478 386 L 478 384 L 477 383 L 477 382 L 476 381 L 476 379 L 475 378 L 475 375 L 474 374 L 474 370 L 473 369 L 473 362 L 472 361 L 472 350 L 471 349 L 472 348 L 472 333 L 473 332 L 473 325 L 474 324 L 474 317 L 475 316 L 475 312 L 476 311 L 476 307 L 478 305 L 478 304 L 479 303 L 479 302 L 480 301 L 480 298 L 481 297 L 481 295 L 482 294 L 482 293 L 483 292 L 483 290 L 484 289 L 484 287 L 486 285 L 486 284 L 487 283 L 487 282 L 488 281 L 488 280 L 489 279 L 489 278 L 491 276 L 491 275 L 492 274 L 492 273 L 494 271 L 494 270 L 496 268 L 496 267 L 498 265 L 498 264 L 502 260 L 502 259 L 506 255 L 507 255 L 508 254 L 509 254 L 509 253 L 510 252 L 510 251 L 513 248 L 514 248 L 519 243 L 520 243 L 522 241 L 523 241 L 524 240 L 525 240 L 527 238 L 528 238 L 529 237 L 530 237 L 531 236 L 532 236 L 533 235 L 534 235 L 535 234 L 536 234 L 537 233 L 540 233 L 541 232 L 544 232 L 545 231 L 547 231 L 548 230 L 555 230 L 556 229 Z" fill="#FFFFFF" fill-rule="evenodd"/>
  <path d="M 1383 93 L 1382 94 L 1375 94 L 1374 95 L 1368 95 L 1367 96 L 1364 96 L 1363 97 L 1361 97 L 1360 98 L 1358 98 L 1357 99 L 1356 99 L 1355 100 L 1353 100 L 1352 101 L 1350 101 L 1349 102 L 1348 102 L 1347 103 L 1346 103 L 1345 104 L 1342 104 L 1341 105 L 1340 105 L 1339 106 L 1338 106 L 1337 107 L 1335 107 L 1334 108 L 1333 108 L 1332 109 L 1331 109 L 1330 110 L 1329 110 L 1328 111 L 1326 111 L 1324 113 L 1323 113 L 1322 114 L 1321 114 L 1320 115 L 1319 115 L 1318 116 L 1317 116 L 1315 118 L 1313 118 L 1310 121 L 1309 121 L 1308 122 L 1307 122 L 1306 123 L 1305 123 L 1303 125 L 1302 125 L 1300 127 L 1299 127 L 1297 129 L 1296 129 L 1294 131 L 1293 131 L 1291 133 L 1290 133 L 1286 137 L 1285 137 L 1280 142 L 1279 142 L 1275 146 L 1274 146 L 1267 153 L 1267 154 L 1262 159 L 1262 160 L 1259 163 L 1258 163 L 1256 161 L 1256 142 L 1255 141 L 1256 140 L 1256 137 L 1255 136 L 1255 125 L 1254 124 L 1254 120 L 1253 119 L 1253 118 L 1252 117 L 1252 114 L 1251 113 L 1251 112 L 1250 111 L 1250 110 L 1248 108 L 1248 107 L 1246 105 L 1245 105 L 1240 100 L 1238 100 L 1236 98 L 1232 98 L 1231 97 L 1229 97 L 1228 96 L 1221 96 L 1220 97 L 1218 97 L 1217 98 L 1213 98 L 1212 99 L 1211 99 L 1210 100 L 1209 100 L 1208 101 L 1207 101 L 1205 103 L 1204 103 L 1199 108 L 1199 109 L 1197 111 L 1197 112 L 1196 113 L 1196 115 L 1195 116 L 1195 117 L 1194 118 L 1194 122 L 1193 123 L 1193 155 L 1194 156 L 1194 161 L 1193 162 L 1193 163 L 1194 164 L 1194 188 L 1195 189 L 1195 208 L 1196 209 L 1196 224 L 1195 225 L 1195 239 L 1196 240 L 1196 241 L 1195 242 L 1196 243 L 1195 244 L 1195 248 L 1196 249 L 1196 250 L 1195 251 L 1196 252 L 1196 253 L 1195 254 L 1196 255 L 1196 271 L 1197 272 L 1197 276 L 1196 277 L 1196 283 L 1197 284 L 1197 287 L 1196 288 L 1196 304 L 1197 305 L 1197 308 L 1196 309 L 1196 316 L 1197 317 L 1196 318 L 1197 319 L 1197 343 L 1198 344 L 1198 362 L 1197 363 L 1198 364 L 1198 382 L 1199 383 L 1199 404 L 1200 405 L 1200 415 L 1199 416 L 1199 418 L 1200 419 L 1200 446 L 1201 447 L 1201 464 L 1202 465 L 1202 476 L 1203 477 L 1203 481 L 1204 482 L 1204 484 L 1206 486 L 1206 487 L 1207 488 L 1207 489 L 1209 491 L 1209 492 L 1213 496 L 1215 496 L 1216 497 L 1217 497 L 1219 499 L 1221 499 L 1222 500 L 1224 500 L 1225 501 L 1227 501 L 1228 502 L 1238 502 L 1239 501 L 1242 501 L 1243 500 L 1244 500 L 1245 499 L 1247 499 L 1249 497 L 1250 497 L 1251 496 L 1252 496 L 1256 492 L 1256 491 L 1258 489 L 1258 488 L 1259 487 L 1259 486 L 1260 485 L 1260 484 L 1261 483 L 1261 477 L 1262 476 L 1262 463 L 1261 462 L 1262 461 L 1262 459 L 1261 458 L 1261 452 L 1262 451 L 1262 415 L 1261 414 L 1261 388 L 1263 386 L 1264 386 L 1269 391 L 1269 392 L 1270 393 L 1270 394 L 1271 394 L 1272 395 L 1272 396 L 1276 400 L 1276 401 L 1279 404 L 1279 405 L 1280 406 L 1280 407 L 1293 420 L 1294 420 L 1302 428 L 1303 428 L 1308 433 L 1309 433 L 1314 438 L 1315 438 L 1318 441 L 1319 441 L 1322 444 L 1323 444 L 1324 445 L 1325 445 L 1327 447 L 1328 447 L 1330 449 L 1331 449 L 1333 451 L 1334 451 L 1336 453 L 1337 453 L 1338 454 L 1339 454 L 1341 456 L 1342 456 L 1345 459 L 1346 459 L 1347 460 L 1348 460 L 1349 461 L 1350 461 L 1352 463 L 1354 463 L 1355 464 L 1356 464 L 1358 466 L 1359 466 L 1360 467 L 1361 467 L 1363 469 L 1364 469 L 1365 470 L 1366 470 L 1367 471 L 1368 471 L 1369 472 L 1371 472 L 1372 473 L 1373 473 L 1374 474 L 1377 474 L 1379 476 L 1381 476 L 1382 477 L 1383 477 L 1384 478 L 1386 478 L 1387 479 L 1388 479 L 1389 480 L 1391 480 L 1392 481 L 1394 481 L 1396 483 L 1398 483 L 1399 484 L 1402 484 L 1403 485 L 1405 485 L 1406 486 L 1409 486 L 1410 487 L 1413 487 L 1414 488 L 1417 488 L 1418 489 L 1420 489 L 1421 490 L 1423 490 L 1424 491 L 1428 491 L 1429 492 L 1432 492 L 1433 493 L 1438 493 L 1440 495 L 1446 495 L 1447 496 L 1452 496 L 1453 497 L 1461 497 L 1462 498 L 1482 498 L 1483 499 L 1525 499 L 1526 498 L 1535 498 L 1536 497 L 1539 497 L 1540 496 L 1547 496 L 1548 495 L 1552 495 L 1553 494 L 1557 494 L 1558 493 L 1561 493 L 1562 492 L 1568 492 L 1569 491 L 1572 491 L 1573 490 L 1577 490 L 1578 489 L 1581 489 L 1582 488 L 1584 488 L 1585 487 L 1589 487 L 1590 486 L 1593 486 L 1594 485 L 1595 485 L 1596 484 L 1598 484 L 1599 483 L 1601 483 L 1602 482 L 1603 482 L 1604 481 L 1606 481 L 1607 480 L 1609 480 L 1610 479 L 1611 479 L 1612 478 L 1614 478 L 1615 477 L 1618 477 L 1620 475 L 1622 475 L 1623 474 L 1624 474 L 1625 473 L 1626 473 L 1627 472 L 1629 472 L 1631 470 L 1632 470 L 1633 469 L 1634 469 L 1635 468 L 1636 468 L 1637 467 L 1638 467 L 1639 466 L 1640 466 L 1641 465 L 1642 465 L 1644 463 L 1645 463 L 1646 462 L 1647 462 L 1649 460 L 1650 460 L 1651 459 L 1652 459 L 1653 458 L 1654 458 L 1656 456 L 1657 456 L 1658 455 L 1659 455 L 1661 453 L 1662 453 L 1663 452 L 1665 452 L 1668 449 L 1669 449 L 1672 446 L 1673 446 L 1676 443 L 1677 443 L 1681 439 L 1682 439 L 1685 436 L 1686 436 L 1691 431 L 1692 431 L 1695 428 L 1696 428 L 1702 422 L 1703 422 L 1703 421 L 1707 417 L 1708 417 L 1708 416 L 1714 410 L 1714 409 L 1719 404 L 1719 403 L 1724 398 L 1724 397 L 1726 395 L 1727 395 L 1728 394 L 1728 393 L 1731 390 L 1731 389 L 1734 386 L 1734 385 L 1736 383 L 1736 382 L 1738 380 L 1738 379 L 1739 378 L 1739 377 L 1743 373 L 1743 372 L 1745 370 L 1745 369 L 1747 367 L 1747 366 L 1749 364 L 1749 363 L 1750 362 L 1750 361 L 1752 359 L 1752 358 L 1753 357 L 1753 355 L 1755 353 L 1755 352 L 1757 350 L 1758 350 L 1758 346 L 1759 345 L 1759 344 L 1760 343 L 1760 342 L 1761 341 L 1761 340 L 1762 339 L 1762 338 L 1763 337 L 1763 336 L 1764 335 L 1764 334 L 1765 333 L 1765 332 L 1766 331 L 1766 330 L 1767 329 L 1767 327 L 1768 326 L 1768 325 L 1769 324 L 1769 322 L 1770 321 L 1770 320 L 1771 319 L 1771 318 L 1772 317 L 1772 316 L 1773 315 L 1773 314 L 1774 313 L 1774 310 L 1775 309 L 1775 308 L 1776 307 L 1776 305 L 1777 304 L 1777 303 L 1778 302 L 1778 300 L 1779 299 L 1779 297 L 1780 296 L 1780 294 L 1781 293 L 1781 291 L 1782 290 L 1782 287 L 1783 286 L 1783 284 L 1784 283 L 1784 278 L 1785 277 L 1785 274 L 1786 273 L 1786 271 L 1787 270 L 1787 265 L 1788 264 L 1788 261 L 1789 260 L 1789 256 L 1790 255 L 1790 243 L 1791 242 L 1791 231 L 1792 230 L 1792 221 L 1793 220 L 1793 217 L 1794 216 L 1794 212 L 1795 211 L 1795 208 L 1796 207 L 1796 206 L 1797 205 L 1797 204 L 1798 203 L 1798 202 L 1799 201 L 1799 200 L 1801 198 L 1801 197 L 1804 194 L 1804 193 L 1805 192 L 1806 192 L 1812 198 L 1813 198 L 1816 201 L 1818 201 L 1819 202 L 1820 202 L 1821 203 L 1826 203 L 1827 204 L 1832 204 L 1833 203 L 1836 203 L 1837 202 L 1838 202 L 1839 201 L 1840 201 L 1841 200 L 1842 200 L 1843 199 L 1844 199 L 1845 198 L 1846 198 L 1849 195 L 1849 194 L 1852 191 L 1853 191 L 1853 190 L 1854 189 L 1854 188 L 1855 187 L 1855 185 L 1856 184 L 1856 183 L 1857 182 L 1857 177 L 1858 176 L 1858 169 L 1857 168 L 1857 163 L 1856 162 L 1856 159 L 1855 158 L 1855 157 L 1854 156 L 1854 155 L 1853 154 L 1853 153 L 1852 152 L 1852 151 L 1850 149 L 1850 148 L 1847 145 L 1847 144 L 1844 141 L 1843 141 L 1837 135 L 1836 135 L 1834 133 L 1833 133 L 1832 132 L 1831 132 L 1830 131 L 1829 131 L 1828 130 L 1827 130 L 1826 129 L 1825 129 L 1824 128 L 1823 128 L 1822 127 L 1819 127 L 1818 126 L 1816 126 L 1815 125 L 1814 125 L 1813 124 L 1807 124 L 1806 123 L 1796 123 L 1795 124 L 1786 124 L 1785 125 L 1782 125 L 1781 126 L 1779 126 L 1778 127 L 1777 127 L 1776 128 L 1775 128 L 1774 129 L 1772 129 L 1771 130 L 1770 130 L 1769 131 L 1768 131 L 1767 132 L 1766 132 L 1765 133 L 1764 133 L 1763 134 L 1762 134 L 1761 135 L 1760 135 L 1759 136 L 1758 136 L 1756 138 L 1755 138 L 1752 141 L 1751 141 L 1747 145 L 1746 145 L 1746 146 L 1745 147 L 1744 147 L 1743 148 L 1743 149 L 1734 158 L 1734 159 L 1732 161 L 1732 162 L 1730 164 L 1730 165 L 1727 168 L 1727 169 L 1726 170 L 1726 171 L 1725 172 L 1725 173 L 1724 174 L 1724 175 L 1723 176 L 1723 177 L 1722 178 L 1722 179 L 1721 180 L 1721 181 L 1720 182 L 1720 184 L 1719 185 L 1719 186 L 1718 187 L 1718 190 L 1717 191 L 1717 196 L 1716 197 L 1716 200 L 1715 201 L 1715 206 L 1714 207 L 1714 213 L 1713 214 L 1713 219 L 1712 220 L 1712 224 L 1711 225 L 1711 233 L 1710 234 L 1710 241 L 1709 242 L 1709 250 L 1708 251 L 1708 253 L 1707 254 L 1707 262 L 1706 263 L 1706 267 L 1705 268 L 1705 270 L 1704 271 L 1704 273 L 1703 274 L 1703 276 L 1702 277 L 1702 279 L 1701 280 L 1701 282 L 1700 283 L 1700 284 L 1699 285 L 1699 287 L 1697 289 L 1697 293 L 1696 294 L 1696 295 L 1695 296 L 1695 297 L 1694 298 L 1694 299 L 1693 300 L 1693 302 L 1692 303 L 1692 304 L 1691 305 L 1691 306 L 1690 307 L 1690 308 L 1689 309 L 1689 310 L 1688 311 L 1688 312 L 1686 314 L 1686 315 L 1685 316 L 1685 317 L 1683 319 L 1683 320 L 1681 322 L 1681 323 L 1679 325 L 1679 326 L 1676 329 L 1676 330 L 1674 332 L 1674 333 L 1671 336 L 1671 337 L 1668 340 L 1668 341 L 1665 344 L 1665 345 L 1662 348 L 1662 349 L 1658 353 L 1657 353 L 1655 355 L 1655 356 L 1652 359 L 1651 359 L 1651 360 L 1647 364 L 1646 364 L 1641 369 L 1640 369 L 1634 375 L 1633 375 L 1633 376 L 1632 377 L 1631 377 L 1629 379 L 1628 379 L 1625 382 L 1624 382 L 1622 384 L 1621 384 L 1620 385 L 1619 385 L 1618 386 L 1617 386 L 1614 389 L 1613 389 L 1612 390 L 1611 390 L 1609 392 L 1608 392 L 1607 393 L 1606 393 L 1605 394 L 1604 394 L 1602 396 L 1601 396 L 1600 397 L 1599 397 L 1597 399 L 1596 399 L 1595 400 L 1594 400 L 1593 401 L 1592 401 L 1591 402 L 1590 402 L 1589 403 L 1588 403 L 1587 404 L 1586 404 L 1585 405 L 1584 405 L 1583 406 L 1581 406 L 1580 407 L 1579 407 L 1578 408 L 1576 408 L 1575 409 L 1573 409 L 1572 410 L 1570 410 L 1569 411 L 1566 411 L 1565 412 L 1563 412 L 1562 413 L 1559 413 L 1558 414 L 1556 414 L 1555 415 L 1553 415 L 1552 416 L 1550 416 L 1549 417 L 1546 417 L 1545 418 L 1541 418 L 1540 419 L 1537 419 L 1536 420 L 1535 419 L 1534 419 L 1533 420 L 1526 420 L 1525 421 L 1517 421 L 1516 422 L 1504 422 L 1503 423 L 1471 423 L 1470 422 L 1461 422 L 1460 421 L 1452 421 L 1451 420 L 1445 420 L 1444 419 L 1438 419 L 1437 418 L 1434 418 L 1433 417 L 1429 417 L 1428 416 L 1425 416 L 1424 415 L 1423 415 L 1422 414 L 1420 414 L 1419 413 L 1417 413 L 1416 412 L 1413 412 L 1412 411 L 1411 411 L 1410 410 L 1406 410 L 1405 409 L 1403 409 L 1402 408 L 1400 408 L 1399 407 L 1398 407 L 1397 406 L 1395 406 L 1394 405 L 1393 405 L 1392 404 L 1391 404 L 1390 403 L 1389 403 L 1388 402 L 1387 402 L 1386 401 L 1385 401 L 1384 400 L 1383 400 L 1382 399 L 1381 399 L 1380 398 L 1379 398 L 1378 397 L 1377 397 L 1374 394 L 1373 394 L 1372 393 L 1371 393 L 1370 392 L 1369 392 L 1367 390 L 1366 390 L 1365 389 L 1364 389 L 1362 387 L 1360 387 L 1359 386 L 1358 386 L 1353 381 L 1352 381 L 1350 379 L 1349 379 L 1346 376 L 1345 376 L 1344 375 L 1343 375 L 1337 369 L 1336 369 L 1334 367 L 1333 367 L 1332 366 L 1332 365 L 1331 365 L 1327 361 L 1326 361 L 1322 357 L 1322 355 L 1323 354 L 1339 354 L 1340 353 L 1343 353 L 1344 354 L 1345 354 L 1346 353 L 1352 353 L 1353 352 L 1365 352 L 1366 351 L 1373 351 L 1374 350 L 1378 350 L 1379 349 L 1383 349 L 1384 348 L 1388 348 L 1389 347 L 1392 347 L 1393 346 L 1395 346 L 1396 345 L 1399 345 L 1400 344 L 1402 344 L 1403 343 L 1404 343 L 1405 342 L 1408 342 L 1409 341 L 1411 341 L 1412 340 L 1413 340 L 1414 339 L 1416 339 L 1417 338 L 1418 338 L 1419 337 L 1420 337 L 1421 336 L 1423 336 L 1424 335 L 1425 335 L 1426 334 L 1427 334 L 1428 333 L 1429 333 L 1431 331 L 1432 331 L 1433 330 L 1434 330 L 1435 329 L 1436 329 L 1437 328 L 1438 328 L 1438 327 L 1441 324 L 1442 324 L 1444 322 L 1445 322 L 1448 319 L 1449 319 L 1453 315 L 1454 315 L 1455 314 L 1455 313 L 1470 298 L 1470 296 L 1473 293 L 1473 292 L 1474 291 L 1474 290 L 1478 286 L 1478 285 L 1480 283 L 1480 282 L 1481 281 L 1481 280 L 1482 279 L 1482 278 L 1483 277 L 1483 276 L 1484 275 L 1484 274 L 1485 273 L 1485 272 L 1486 271 L 1486 269 L 1487 268 L 1487 266 L 1488 265 L 1488 264 L 1489 263 L 1489 261 L 1490 260 L 1490 257 L 1491 256 L 1491 252 L 1492 251 L 1492 249 L 1493 248 L 1493 244 L 1494 243 L 1494 238 L 1495 237 L 1495 225 L 1496 224 L 1496 208 L 1495 207 L 1495 200 L 1494 199 L 1494 195 L 1493 194 L 1493 192 L 1492 191 L 1492 188 L 1491 187 L 1491 184 L 1490 183 L 1490 180 L 1489 179 L 1489 177 L 1488 176 L 1488 174 L 1487 173 L 1487 172 L 1486 171 L 1486 168 L 1484 166 L 1484 163 L 1482 161 L 1482 159 L 1481 158 L 1481 157 L 1480 156 L 1480 155 L 1479 154 L 1479 153 L 1477 151 L 1477 149 L 1476 148 L 1476 147 L 1474 145 L 1474 144 L 1473 143 L 1473 142 L 1472 141 L 1472 140 L 1471 140 L 1470 139 L 1470 138 L 1468 136 L 1468 135 L 1466 133 L 1466 132 L 1463 129 L 1463 128 L 1462 127 L 1462 126 L 1461 126 L 1459 124 L 1459 123 L 1455 119 L 1455 118 L 1454 118 L 1446 110 L 1445 110 L 1442 107 L 1441 107 L 1440 106 L 1439 106 L 1437 104 L 1436 104 L 1435 103 L 1434 103 L 1433 102 L 1432 102 L 1431 101 L 1430 101 L 1429 100 L 1428 100 L 1427 99 L 1426 99 L 1425 98 L 1423 98 L 1422 97 L 1420 97 L 1419 96 L 1418 96 L 1417 95 L 1412 95 L 1411 94 L 1406 94 L 1405 93 Z M 1385 157 L 1386 156 L 1396 156 L 1397 157 L 1400 157 L 1401 158 L 1403 158 L 1404 159 L 1407 159 L 1410 162 L 1411 162 L 1419 170 L 1419 171 L 1422 174 L 1422 175 L 1424 177 L 1424 178 L 1426 180 L 1426 181 L 1427 182 L 1427 183 L 1428 184 L 1428 186 L 1429 187 L 1429 188 L 1430 189 L 1430 191 L 1431 192 L 1431 193 L 1432 194 L 1432 196 L 1433 197 L 1433 200 L 1434 201 L 1434 204 L 1435 205 L 1435 215 L 1436 216 L 1436 223 L 1435 224 L 1435 232 L 1434 233 L 1434 237 L 1433 238 L 1433 241 L 1432 242 L 1432 243 L 1431 244 L 1431 246 L 1430 247 L 1430 248 L 1429 249 L 1429 250 L 1427 252 L 1427 253 L 1426 254 L 1426 255 L 1425 256 L 1425 257 L 1424 258 L 1424 259 L 1411 272 L 1410 272 L 1408 274 L 1407 274 L 1404 277 L 1403 277 L 1402 278 L 1401 278 L 1400 279 L 1399 279 L 1398 280 L 1397 280 L 1396 281 L 1395 281 L 1394 282 L 1393 282 L 1392 283 L 1390 283 L 1389 284 L 1388 284 L 1387 285 L 1385 285 L 1384 286 L 1383 286 L 1382 287 L 1379 287 L 1378 288 L 1376 288 L 1375 289 L 1371 289 L 1370 290 L 1366 290 L 1365 291 L 1361 291 L 1360 292 L 1346 292 L 1345 293 L 1344 293 L 1343 292 L 1341 292 L 1340 293 L 1330 293 L 1329 294 L 1315 294 L 1314 293 L 1312 293 L 1311 294 L 1304 294 L 1303 293 L 1287 293 L 1286 292 L 1279 292 L 1278 291 L 1273 291 L 1272 290 L 1270 290 L 1269 289 L 1269 285 L 1270 284 L 1270 280 L 1271 279 L 1271 276 L 1272 275 L 1272 272 L 1273 271 L 1273 269 L 1274 268 L 1274 266 L 1275 265 L 1275 264 L 1276 263 L 1276 261 L 1277 260 L 1277 259 L 1278 258 L 1278 257 L 1279 256 L 1279 255 L 1280 254 L 1280 252 L 1281 251 L 1281 250 L 1282 249 L 1282 247 L 1284 245 L 1284 244 L 1285 243 L 1285 242 L 1286 241 L 1286 240 L 1287 239 L 1287 238 L 1288 237 L 1288 236 L 1289 235 L 1289 234 L 1291 232 L 1291 231 L 1293 229 L 1293 228 L 1294 227 L 1294 226 L 1297 223 L 1297 222 L 1299 220 L 1299 219 L 1302 216 L 1302 215 L 1304 213 L 1304 212 L 1306 210 L 1306 209 L 1310 205 L 1310 204 L 1313 201 L 1313 200 L 1321 192 L 1321 191 L 1322 190 L 1323 190 L 1331 182 L 1332 182 L 1334 180 L 1335 180 L 1339 176 L 1340 176 L 1343 173 L 1344 173 L 1345 172 L 1346 172 L 1348 170 L 1349 170 L 1350 169 L 1351 169 L 1352 168 L 1353 168 L 1354 167 L 1355 167 L 1356 166 L 1357 166 L 1358 165 L 1359 165 L 1360 164 L 1361 164 L 1362 163 L 1364 163 L 1365 162 L 1367 162 L 1368 161 L 1369 161 L 1370 160 L 1371 160 L 1372 159 L 1374 159 L 1375 158 L 1376 159 L 1377 158 L 1380 158 L 1381 157 Z" fill="#FFFFFF" fill-rule="evenodd"/>
</svg>
